<svg version="1.1" id="Layer_1" xmlns="http://www.w3.org/2000/svg" xmlns:xlink="http://www.w3.org/1999/xlink" x="0px" y="0px"
	 width="100%" viewBox="0 0 500 500" enable-background="new 0 0 500 500" xml:space="preserve">
<path fill="#E59589" opacity="1.000000" stroke="none" 
	d="
M1.000000,112.000000 
	C1.000000,109.299370 1.000000,106.598747 1.306518,103.289963 
	C4.373137,96.714653 7.670010,91.306923 15.345551,89.963425 
	C51.014503,89.933517 86.210228,90.262352 121.394577,89.782127 
	C121.395027,88.875206 121.395477,87.968292 121.395927,87.061371 
	C85.855072,87.061371 50.314217,87.061371 14.446704,86.992615 
	C6.996096,81.295174 4.629654,74.054512 7.234038,65.854561 
	C9.508151,58.694473 16.382893,53.575119 24.523052,53.076172 
	C26.999775,52.924366 29.489466,52.984112 32.138748,53.304497 
	C33.656437,54.106476 35.007694,54.935711 36.360893,54.938889 
	C67.189743,55.011257 98.018822,55.003765 128.847763,54.954056 
	C130.072266,54.952080 131.295853,54.387951 132.519867,54.085751 
	C132.446136,53.358265 132.372421,52.630783 132.298691,51.903297 
	C99.131897,51.903297 65.965096,51.903297 32.619263,51.632919 
	C26.930027,45.824337 25.351780,39.295727 28.480713,32.159756 
	C31.513226,25.243681 37.213947,22.040442 44.803440,21.981642 
	C75.595192,21.743073 106.386108,21.392654 137.177933,21.165060 
	C160.817978,20.990328 184.465256,21.240044 208.097610,20.743181 
	C230.296783,20.276451 249.595398,27.018093 266.218597,41.718906 
	C267.672943,43.005051 269.946106,44.035198 271.845764,44.046638 
	C297.152771,44.199089 322.460999,44.155807 347.768890,44.126801 
	C349.082153,44.125294 350.395050,43.813580 351.810791,44.080471 
	C352.261932,47.639149 352.943024,50.768181 352.900543,53.887352 
	C352.728729,66.502831 352.211548,79.113754 352.055573,91.729256 
	C351.895233,104.697937 351.793488,117.675156 352.106842,130.637970 
	C352.229065,135.694687 350.654633,137.236877 345.601288,137.157288 
	C333.979156,136.974289 322.347290,137.411606 310.348267,137.562241 
	C298.149811,137.482590 286.321686,137.363419 274.495880,137.478485 
	C272.842529,137.494583 270.730133,138.209915 269.624573,139.363113 
	C256.081024,153.490112 238.420303,159.099503 220.258087,164.020782 
	C211.644730,166.354660 202.923660,169.003632 194.986572,172.978073 
	C176.232910,182.368851 157.978455,192.751602 139.386047,202.472931 
	C134.867752,204.835388 129.823349,206.191635 124.582611,208.008316 
	C116.018478,208.752747 110.387314,205.076370 107.035889,197.916962 
	C104.081238,191.605118 105.787193,185.315353 112.274628,179.280807 
	C116.231087,175.600540 120.719841,172.492508 125.337799,169.155243 
	C128.818024,167.255539 131.929962,165.328049 135.041901,163.400543 
	C134.883301,162.963882 134.724701,162.527237 134.566116,162.090576 
	C131.457672,162.090576 128.349228,162.090576 124.757080,162.085846 
	C97.797607,162.070541 71.320396,162.195541 44.847534,161.912933 
	C40.549232,161.867035 36.270218,160.014572 31.730999,158.775558 
	C26.638996,154.391968 24.203568,149.084900 24.287424,142.735535 
	C24.367922,136.640671 28.174738,132.306183 32.219910,127.920372 
	C65.980606,127.844254 99.253983,127.748245 132.527130,127.601173 
	C132.835159,127.599808 133.140198,126.916634 134.121948,125.747673 
	C131.511734,125.446907 129.538269,125.024338 127.564178,125.021378 
	C98.937523,124.978523 70.310646,124.953423 41.684200,125.042053 
	C38.228447,125.052750 34.774830,125.751045 30.901302,126.212570 
	C27.329235,126.304909 24.175804,126.347343 21.022991,126.319458 
	C13.045547,126.248917 6.982963,122.929405 3.194604,115.758926 
	C2.517445,114.477219 1.734238,113.251549 1.000000,112.000000 
z"/>
<path fill="#935753" opacity="1.000000" stroke="none" 
	d="
M501.000000,408.000000 
	C501.000000,410.042328 501.000000,412.084625 500.692139,414.738892 
	C498.124298,422.412292 493.862976,427.428864 485.924377,428.939697 
	C484.051239,428.522491 482.585571,428.050995 481.119232,428.049042 
	C448.803192,428.006195 416.487122,427.998383 384.171204,428.065918 
	C382.598358,428.069214 381.027100,428.820526 379.455109,429.223511 
	C379.460724,429.859283 379.466309,430.495056 379.471924,431.130829 
	C381.551849,431.418060 383.631348,431.951874 385.711761,431.955444 
	C416.861694,432.008881 448.011841,432.017456 479.161682,431.944000 
	C481.607513,431.938232 484.051697,431.245697 486.811707,430.946289 
	C495.092041,437.354370 497.651917,444.912720 494.662506,453.270264 
	C491.900085,460.993225 484.978790,465.358551 475.453461,465.511108 
	C473.322571,465.545227 471.197113,465.919769 468.961182,465.758423 
	C467.359772,464.600952 465.869324,463.150208 464.372498,463.143677 
	C433.873718,463.009705 403.374146,463.020569 372.875000,463.100677 
	C371.385620,463.104614 369.898590,464.004089 367.575562,464.757202 
	C369.109650,465.917419 369.616669,466.636566 370.126923,466.638855 
	C403.114838,466.788300 436.103058,466.879608 469.397888,467.122742 
	C475.082520,472.863220 476.665497,479.350281 473.571625,486.513275 
	C470.351501,493.968567 464.075867,496.778717 456.275299,496.832642 
	C400.847443,497.215759 345.420074,497.771118 289.991638,497.912262 
	C269.408203,497.964630 251.315033,490.776276 235.931290,476.880280 
	C234.291992,475.399506 231.650131,474.319946 229.453796,474.285004 
	C218.974319,474.118317 208.488174,474.452454 198.004181,474.469208 
	C170.031906,474.513916 142.059509,474.487122 114.034958,473.995758 
	C113.938324,469.643677 113.893906,465.784607 114.145142,461.908447 
	C114.638168,461.895935 114.835541,461.900574 115.171951,462.213989 
	C118.425255,467.121704 122.463829,470.367340 128.157913,471.020050 
	C140.655716,472.452606 149.864899,464.431610 149.956573,451.709351 
	C150.126450,428.138000 150.080597,404.565094 150.577118,380.998535 
	C155.307220,380.965546 159.584763,380.926819 164.121246,381.114441 
	C174.715057,393.093323 185.223785,392.931976 194.606064,380.919220 
	C205.882233,380.969757 216.704376,381.036346 227.525085,380.941010 
	C229.044983,380.927643 231.057236,380.597565 231.998413,379.610260 
	C244.196350,366.814972 259.693298,359.899841 276.424103,356.310120 
	C293.144836,352.722504 308.012085,345.480621 322.852173,337.511780 
	C340.665985,327.946075 358.892914,319.149780 377.356506,310.066101 
	C385.928375,310.353333 392.522827,313.166595 395.284088,321.511963 
	C398.030670,329.812988 394.554565,336.150391 388.192078,341.211639 
	C384.561035,344.100128 380.669922,346.661682 376.576111,349.441467 
	C373.138489,351.437805 370.020660,353.363159 366.902863,355.288513 
	C366.999390,355.625824 367.095917,355.963135 367.192444,356.300446 
	C370.391510,356.155426 373.590546,356.010406 377.269043,355.917725 
	C402.964569,355.999268 428.182983,355.854248 453.394836,356.194794 
	C458.876404,356.268799 464.334442,358.082581 469.972351,359.388367 
	C481.604675,370.316681 479.455597,381.038025 469.000031,392.168030 
	C472.480713,392.168030 474.623901,392.167603 476.767090,392.168060 
	C491.231201,392.171173 495.569702,395.005737 501.000000,408.000000 
M434.500000,390.031342 
	C414.181152,390.031555 393.862183,390.004333 373.543579,390.074371 
	C371.512360,390.081360 369.483154,390.679504 367.453033,391.003265 
	C367.485626,391.656006 367.518250,392.308746 367.550842,392.961487 
	C369.175385,393.310089 370.799316,393.959473 372.424561,393.962738 
	C402.403076,394.023254 432.381866,394.036255 462.360016,393.914398 
	C463.786041,393.908630 465.206635,392.563904 466.629730,391.842682 
	C465.246765,391.241058 463.872589,390.143127 462.479340,390.118378 
	C453.488556,389.958740 444.493591,390.033600 434.500000,390.031342 
z"/>
<path fill="#C5807B" opacity="1.000000" stroke="none" 
	d="
M376.895905,349.370422 
	C380.669922,346.661682 384.561035,344.100128 388.192078,341.211639 
	C394.554565,336.150391 398.030670,329.812988 395.284088,321.511963 
	C392.522827,313.166595 385.928375,310.353333 377.238708,309.606506 
	C376.669434,297.790222 376.702332,286.478180 376.528717,275.169373 
	C376.500305,273.318085 376.147644,270.863495 374.954590,269.731201 
	C360.907471,256.399689 354.612152,239.107391 350.537598,220.970108 
	C347.948181,209.443634 343.632507,198.820663 338.100525,188.541489 
	C328.964233,171.565033 319.845490,154.579117 310.719360,137.597183 
	C322.347290,137.411606 333.979156,136.974289 345.601288,137.157288 
	C350.654633,137.236877 352.229065,135.694687 352.106842,130.637970 
	C351.793488,117.675156 351.895233,104.697937 352.055573,91.729256 
	C352.211548,79.113754 352.728729,66.502831 352.900543,53.887352 
	C352.943024,50.768181 352.261932,47.639149 351.805969,43.675713 
	C352.379791,39.959961 352.549133,36.829166 353.828979,34.249260 
	C360.179932,21.446970 378.816162,19.910330 386.855896,34.311642 
	C386.459717,36.168980 386.035278,37.638813 386.033325,39.109203 
	C385.993988,69.107498 385.992523,99.105881 386.033539,129.104172 
	C386.035553,130.579666 386.492645,132.054535 386.737823,133.529709 
	C387.257477,133.529327 387.777130,133.528961 388.296814,133.528580 
	C388.537689,131.707413 388.985870,129.886536 388.988586,128.065018 
	C389.032288,98.566704 389.041718,69.068260 388.967560,39.570065 
	C388.962769,37.666584 388.214630,35.764973 387.828522,33.403168 
	C387.853210,28.494709 387.855011,24.045559 387.871643,19.596462 
	C387.896362,12.991928 390.768463,7.895475 396.134491,4.157196 
	C397.719971,3.052637 399.376190,2.049572 401.000000,1.000001 
	C404.030609,1.000000 407.061188,1.000000 410.777222,1.256698 
	C417.852295,4.103048 423.136475,7.709870 424.093933,15.796053 
	C424.065582,51.582245 424.065582,86.844177 424.065582,122.106110 
	C424.752014,122.167290 425.438446,122.228462 426.124878,122.289642 
	C426.417023,120.380341 426.960541,118.471458 426.963745,116.561676 
	C427.016479,84.955345 427.027283,53.348839 426.941620,21.742649 
	C426.936066,19.694202 426.071533,17.648083 425.781372,15.316628 
	C430.741791,8.446141 437.095703,4.654182 445.281616,6.299399 
	C459.230621,9.102886 461.636566,19.948023 461.209808,32.566914 
	C462.644440,31.724812 463.249237,31.469376 463.735107,31.069479 
	C469.602173,26.240509 476.111664,25.310436 482.834778,28.667988 
	C489.437378,31.965332 492.016785,37.755108 492.058533,45.086292 
	C492.234100,75.888824 492.607178,106.690170 492.853119,137.492386 
	C493.037933,160.639221 492.852020,183.793045 493.360687,206.932098 
	C493.842896,228.865967 487.806580,248.336884 473.160095,264.809418 
	C470.740906,267.530212 469.786957,270.119507 469.798706,273.666046 
	C469.892731,302.142090 469.822998,330.618652 469.803314,359.095062 
	C464.334442,358.082581 458.876404,356.268799 453.394836,356.194794 
	C428.182983,355.854248 402.964569,355.999268 377.240601,355.510376 
	C376.787079,353.157257 376.841492,351.263855 376.895905,349.370422 
M459.000031,57.500011 
	C459.056274,81.976181 459.108948,106.452370 459.198944,130.928421 
	C459.200470,131.346451 459.635162,131.776001 459.909119,132.171494 
	C459.986084,132.282608 460.207581,132.321060 460.368652,132.338440 
	C460.521301,132.354904 460.681671,132.300110 460.838623,132.276642 
	C462.876129,127.485291 462.476837,36.631428 459.000000,33.567368 
	C459.000000,41.211590 459.000000,48.855812 459.000031,57.500011 
z"/>
<path fill="#FFFEFE" opacity="1.000000" stroke="none" 
	d="
M469.069153,466.137604 
	C471.197113,465.919769 473.322571,465.545227 475.453461,465.511108 
	C484.978790,465.358551 491.900085,460.993225 494.662506,453.270264 
	C497.651917,444.912720 495.092041,437.354370 486.766602,430.652863 
	C486.381470,429.891724 486.356476,429.497925 486.331512,429.104095 
	C493.862976,427.428864 498.124298,422.412292 500.692139,415.175415 
	C501.000000,443.653809 501.000000,472.307587 501.000000,500.980713 
	C334.421051,500.980713 167.842102,500.980713 1.000000,500.980713 
	C1.000000,371.645905 1.000000,242.291611 1.000000,112.468658 
	C1.734238,113.251549 2.517445,114.477219 3.194604,115.758926 
	C6.982963,122.929405 13.045547,126.248917 21.022991,126.319458 
	C24.175804,126.347343 27.329235,126.304909 30.932629,126.513664 
	C31.499437,127.121071 31.616003,127.509300 31.732571,127.897537 
	C28.174738,132.306183 24.367922,136.640671 24.287424,142.735535 
	C24.203568,149.084900 26.638996,154.391968 31.692268,159.242813 
	C31.891973,180.745758 31.975283,201.560928 31.740463,222.372513 
	C31.712179,224.879166 30.572845,227.912750 28.909830,229.774170 
	C17.923437,242.071335 10.444194,256.277283 9.239439,272.592590 
	C7.944460,290.129791 8.601401,307.820282 8.623776,325.443604 
	C8.661191,354.911804 8.821760,384.380157 9.030725,413.847748 
	C9.125113,427.157990 9.198581,440.478271 9.793313,453.771088 
	C10.104974,460.737000 14.398458,465.522980 20.943586,467.730682 
	C27.865490,470.065521 34.051701,468.545685 39.243958,462.894348 
	C39.861572,463.044708 40.204227,463.176819 40.546150,463.752441 
	C40.671906,467.340485 40.581841,470.511871 40.968044,473.624176 
	C41.893593,481.082886 48.041245,487.549377 55.282837,488.983887 
	C63.670895,490.645538 70.883049,487.461334 75.338531,480.167664 
	C75.578293,480.100220 76.022179,479.874207 76.326050,480.052612 
	C79.368996,487.482086 83.899010,492.775970 91.979744,494.073822 
	C102.116295,495.701904 113.284286,489.474426 114.087166,474.488770 
	C142.059509,474.487122 170.031906,474.513916 198.004181,474.469208 
	C208.488174,474.452454 218.974319,474.118317 229.453796,474.285004 
	C231.650131,474.319946 234.291992,475.399506 235.931290,476.880280 
	C251.315033,490.776276 269.408203,497.964630 289.991638,497.912262 
	C345.420074,497.771118 400.847443,497.215759 456.275299,496.832642 
	C464.075867,496.778717 470.351501,493.968567 473.571625,486.513275 
	C476.665497,479.350281 475.082520,472.863220 469.392853,466.913086 
	C469.081177,466.556854 469.069153,466.137604 469.069153,466.137604 
z"/>
<path fill="#FFFEFE" opacity="1.000000" stroke="none" 
	d="
M387.024384,33.924393 
	C378.816162,19.910330 360.179932,21.446970 353.828979,34.249260 
	C352.549133,36.829166 352.379791,39.959961 351.703308,43.241531 
	C350.395050,43.813580 349.082153,44.125294 347.768890,44.126801 
	C322.460999,44.155807 297.152771,44.199089 271.845764,44.046638 
	C269.946106,44.035198 267.672943,43.005051 266.218597,41.718906 
	C249.595398,27.018093 230.296783,20.276451 208.097610,20.743181 
	C184.465256,21.240044 160.817978,20.990328 137.177933,21.165060 
	C106.386108,21.392654 75.595192,21.743073 44.803440,21.981642 
	C37.213947,22.040442 31.513226,25.243681 28.480713,32.159756 
	C25.351780,39.295727 26.930027,45.824337 32.433350,51.763119 
	C32.230186,52.398624 32.079102,52.659714 31.973217,52.946964 
	C29.489466,52.984112 26.999775,52.924366 24.523052,53.076172 
	C16.382893,53.575119 9.508151,58.694473 7.234038,65.854561 
	C4.629654,74.054512 6.996096,81.295174 14.536526,87.350677 
	C14.924432,88.506401 14.895861,89.235291 14.867289,89.964180 
	C7.670010,91.306923 4.373137,96.714653 1.306518,102.840897 
	C1.000000,69.029648 1.000000,35.059296 1.000000,1.000000 
	C134.020874,1.000000 267.041779,1.000000 400.531342,1.000001 
	C399.376190,2.049572 397.719971,3.052637 396.134491,4.157196 
	C390.768463,7.895475 387.896362,12.991928 387.871643,19.596462 
	C387.855011,24.045559 387.853210,28.494709 387.630859,33.409927 
	C387.416962,33.876015 387.024384,33.924393 387.024384,33.924393 
z"/>
<path fill="#FFFEFE" opacity="1.000000" stroke="none" 
	d="
M469.972351,359.388367 
	C469.822998,330.618652 469.892731,302.142090 469.798706,273.666046 
	C469.786957,270.119507 470.740906,267.530212 473.160095,264.809418 
	C487.806580,248.336884 493.842896,228.865967 493.360687,206.932098 
	C492.852020,183.793045 493.037933,160.639221 492.853119,137.492386 
	C492.607178,106.690170 492.234100,75.888824 492.058533,45.086292 
	C492.016785,37.755108 489.437378,31.965332 482.834778,28.667988 
	C476.111664,25.310436 469.602173,26.240509 463.735107,31.069479 
	C463.249237,31.469376 462.644440,31.724812 461.209808,32.566914 
	C461.636566,19.948023 459.230621,9.102886 445.281616,6.299399 
	C437.095703,4.654182 430.741791,8.446141 425.541992,15.226866 
	C424.792603,15.371504 424.457428,15.321651 424.122253,15.271797 
	C423.136475,7.709870 417.852295,4.103048 411.231323,1.256698 
	C440.973572,1.000000 470.947144,1.000000 501.000000,1.000000 
	C501.000000,136.354218 501.000000,271.708466 501.000000,407.531342 
	C495.569702,395.005737 491.231201,392.171173 476.767090,392.168060 
	C474.623901,392.167603 472.480713,392.168030 469.000031,392.168030 
	C479.455597,381.038025 481.604675,370.316681 469.972351,359.388367 
z"/>
<path fill="#F57C67" opacity="1.000000" stroke="none" 
	d="
M75.098770,480.235077 
	C70.883049,487.461334 63.670895,490.645538 55.282837,488.983887 
	C48.041245,487.549377 41.893593,481.082886 40.968044,473.624176 
	C40.581841,470.511871 40.671906,467.340485 40.893387,463.503662 
	C41.824223,461.159424 42.909821,459.509186 42.915382,457.855347 
	C43.017250,427.558472 43.009693,397.261139 42.930302,366.964142 
	C42.926342,365.453186 42.060589,363.944458 41.351452,361.639435 
	C40.168209,363.067383 39.418861,363.549255 39.416100,364.035339 
	C39.228779,396.982056 39.101460,429.929077 38.969002,462.876099 
	C34.051701,468.545685 27.865490,470.065521 20.943586,467.730682 
	C14.398458,465.522980 10.104974,460.737000 9.793313,453.771088 
	C9.198581,440.478271 9.125113,427.157990 9.030725,413.847748 
	C8.821760,384.380157 8.661191,354.911804 8.623776,325.443604 
	C8.601401,307.820282 7.944460,290.129791 9.239439,272.592590 
	C10.444194,256.277283 17.923437,242.071335 28.909830,229.774170 
	C30.572845,227.912750 31.712179,224.879166 31.740463,222.372513 
	C31.975283,201.560928 31.891973,180.745758 31.943560,159.464417 
	C36.270218,160.014572 40.549232,161.867035 44.847534,161.912933 
	C71.320396,162.195541 97.797607,162.070541 124.673325,162.514679 
	C125.038689,165.007980 125.004105,167.067719 124.969513,169.127457 
	C120.719841,172.492508 116.231087,175.600540 112.274628,179.280807 
	C105.787193,185.315353 104.081238,191.605118 107.035889,197.916962 
	C110.387314,205.076370 116.018478,208.752747 124.574875,208.474792 
	C125.004753,213.103363 124.904167,217.266968 125.059654,221.420975 
	C125.111526,222.806915 125.388290,224.628693 126.290565,225.472198 
	C140.851761,239.085495 146.364151,257.091492 151.525604,275.503815 
	C154.371780,285.657013 158.057404,295.744354 162.744339,305.175720 
	C171.616531,323.028961 181.548187,340.353485 190.905106,357.969177 
	C194.721237,365.153534 197.320236,372.645477 194.151566,380.883728 
	C185.223785,392.931976 174.715057,393.093323 164.017609,380.799744 
	C159.429962,373.840454 155.204880,367.422302 150.979797,361.004150 
	C150.694717,361.119965 150.409653,361.235809 150.124573,361.351654 
	C150.124573,367.898712 150.124573,374.445770 150.124573,380.992828 
	C150.080597,404.565094 150.126450,428.138000 149.956573,451.709351 
	C149.864899,464.431610 140.655716,472.452606 128.157913,471.020050 
	C122.463829,470.367340 118.425255,467.121704 115.251511,461.812927 
	C115.453972,459.633942 115.942207,458.165100 115.944489,456.695496 
	C115.991608,426.398560 116.004364,396.101471 115.922325,365.804688 
	C115.918350,364.338287 114.984291,362.874390 114.483345,361.409332 
	C113.961273,361.474274 113.439194,361.539215 112.917114,361.604156 
	C112.611694,363.286011 112.042992,364.967407 112.039963,366.649811 
	C111.985992,396.613861 111.968880,426.578125 112.079704,456.541840 
	C112.086342,458.338562 113.233208,460.131073 113.849503,461.925537 
	C113.893906,465.784607 113.938324,469.643677 114.034958,473.995758 
	C113.284286,489.474426 102.116295,495.701904 91.979744,494.073822 
	C83.899010,492.775970 79.368996,487.482086 76.586685,479.777344 
	C77.028137,477.796478 77.931961,476.270264 77.935768,474.741821 
	C78.016052,442.458038 78.014130,410.173920 77.932495,377.890137 
	C77.928719,376.397461 77.032898,374.906982 76.552536,373.415497 
	C75.978638,373.469238 75.404739,373.523010 74.830833,373.576782 
	C74.555336,375.569733 74.042976,377.562317 74.039757,379.555725 
	C73.989204,410.841187 73.981529,442.126801 74.051392,473.412201 
	C74.056473,475.687256 74.733925,477.960815 75.098770,480.235077 
z"/>
<path fill="#FFFFFF" opacity="1.000000" stroke="none" 
	d="
M194.606064,380.919220 
	C197.320236,372.645477 194.721237,365.153534 190.905106,357.969177 
	C181.548187,340.353485 171.616531,323.028961 162.744339,305.175720 
	C158.057404,295.744354 154.371780,285.657013 151.525604,275.503815 
	C146.364151,257.091492 140.851761,239.085495 126.290565,225.472198 
	C125.388290,224.628693 125.111526,222.806915 125.059654,221.420975 
	C124.904167,217.266968 125.004753,213.103363 125.013123,208.477036 
	C129.823349,206.191635 134.867752,204.835388 139.386047,202.472931 
	C157.978455,192.751602 176.232910,182.368851 194.986572,172.978073 
	C202.923660,169.003632 211.644730,166.354660 220.258087,164.020782 
	C238.420303,159.099503 256.081024,153.490112 269.624573,139.363113 
	C270.730133,138.209915 272.842529,137.494583 274.495880,137.478485 
	C286.321686,137.363419 298.149811,137.482590 310.348267,137.562241 
	C319.845490,154.579117 328.964233,171.565033 338.100525,188.541489 
	C343.632507,198.820663 347.948181,209.443634 350.537598,220.970108 
	C354.612152,239.107391 360.907471,256.399689 374.954590,269.731201 
	C376.147644,270.863495 376.500305,273.318085 376.528717,275.169373 
	C376.702332,286.478180 376.669434,297.790222 376.823181,309.560760 
	C358.892914,319.149780 340.665985,327.946075 322.852173,337.511780 
	C308.012085,345.480621 293.144836,352.722504 276.424103,356.310120 
	C259.693298,359.899841 244.196350,366.814972 231.998413,379.610260 
	C231.057236,380.597565 229.044983,380.927643 227.525085,380.941010 
	C216.704376,381.036346 205.882233,380.969757 194.606064,380.919220 
z"/>
<path fill="#DA7B79" opacity="1.000000" stroke="none" 
	d="
M15.345551,89.963425 
	C14.895861,89.235291 14.924432,88.506401 14.863182,87.419441 
	C50.314217,87.061371 85.855072,87.061371 121.395927,87.061371 
	C121.395477,87.968292 121.395027,88.875206 121.394577,89.782127 
	C86.210228,90.262352 51.014503,89.933517 15.345551,89.963425 
z"/>
<path fill="#DA7B79" opacity="1.000000" stroke="none" 
	d="
M32.219910,127.920372 
	C31.616003,127.509300 31.499437,127.121071 31.351547,126.431740 
	C34.774830,125.751045 38.228447,125.052750 41.684200,125.042053 
	C70.310646,124.953423 98.937523,124.978523 127.564178,125.021378 
	C129.538269,125.024338 131.511734,125.446907 134.121948,125.747673 
	C133.140198,126.916634 132.835159,127.599808 132.527130,127.601173 
	C99.253983,127.748245 65.980606,127.844254 32.219910,127.920372 
z"/>
<path fill="#DA7B79" opacity="1.000000" stroke="none" 
	d="
M32.138748,53.304497 
	C32.079102,52.659714 32.230186,52.398624 32.612381,52.033493 
	C65.965096,51.903297 99.131897,51.903297 132.298691,51.903297 
	C132.372421,52.630783 132.446136,53.358265 132.519867,54.085751 
	C131.295853,54.387951 130.072266,54.952080 128.847763,54.954056 
	C98.018822,55.003765 67.189743,55.011257 36.360893,54.938889 
	C35.007694,54.935711 33.656437,54.106476 32.138748,53.304497 
z"/>
<path fill="#FBEFED" opacity="1.000000" stroke="none" 
	d="
M125.337799,169.155243 
	C125.004105,167.067719 125.038689,165.007980 125.157028,162.519409 
	C128.349228,162.090576 131.457672,162.090576 134.566116,162.090576 
	C134.724701,162.527237 134.883301,162.963882 135.041901,163.400543 
	C131.929962,165.328049 128.818024,167.255539 125.337799,169.155243 
z"/>
<path fill="#853E3B" opacity="1.000000" stroke="none" 
	d="
M485.924377,428.939697 
	C486.356476,429.497925 486.381470,429.891724 486.451538,430.578979 
	C484.051697,431.245697 481.607513,431.938232 479.161682,431.944000 
	C448.011841,432.017456 416.861694,432.008881 385.711761,431.955444 
	C383.631348,431.951874 381.551849,431.418060 379.471924,431.130829 
	C379.466309,430.495056 379.460724,429.859283 379.455109,429.223511 
	C381.027100,428.820526 382.598358,428.069214 384.171204,428.065918 
	C416.487122,427.998383 448.803192,428.006195 481.119232,428.049042 
	C482.585571,428.050995 484.051239,428.522491 485.924377,428.939697 
z"/>
<path fill="#853E3C" opacity="1.000000" stroke="none" 
	d="
M468.961182,465.758423 
	C469.069153,466.137604 469.081177,466.556854 469.086182,466.766479 
	C436.103058,466.879608 403.114838,466.788300 370.126923,466.638855 
	C369.616669,466.636566 369.109650,465.917419 367.575562,464.757202 
	C369.898590,464.004089 371.385620,463.104614 372.875000,463.100677 
	C403.374146,463.020569 433.873718,463.009705 464.372498,463.143677 
	C465.869324,463.150208 467.359772,464.600952 468.961182,465.758423 
z"/>
<path fill="#F36F61" opacity="1.000000" stroke="none" 
	d="
M114.145149,461.908447 
	C113.233208,460.131073 112.086342,458.338562 112.079704,456.541840 
	C111.968880,426.578125 111.985992,396.613861 112.039963,366.649811 
	C112.042992,364.967407 112.611694,363.286011 112.917114,361.604156 
	C113.439194,361.539215 113.961273,361.474274 114.483345,361.409332 
	C114.984291,362.874390 115.918350,364.338287 115.922325,365.804688 
	C116.004364,396.101471 115.991608,426.398560 115.944489,456.695496 
	C115.942207,458.165100 115.453972,459.633942 115.112473,461.504150 
	C114.835541,461.900574 114.638168,461.895935 114.145149,461.908447 
z"/>
<path fill="#853E3B" opacity="1.000000" stroke="none" 
	d="
M435.000000,390.031433 
	C444.493591,390.033600 453.488556,389.958740 462.479340,390.118378 
	C463.872589,390.143127 465.246765,391.241058 466.629730,391.842712 
	C465.206635,392.563904 463.786041,393.908630 462.360016,393.914398 
	C432.381866,394.036255 402.403076,394.023254 372.424561,393.962738 
	C370.799316,393.959473 369.175385,393.310089 367.550842,392.961487 
	C367.518250,392.308746 367.485626,391.656006 367.453033,391.003265 
	C369.483154,390.679504 371.512360,390.081360 373.543579,390.074371 
	C393.862183,390.004333 414.181152,390.031555 435.000000,390.031433 
z"/>
<path fill="#FFFCFB" opacity="1.000000" stroke="none" 
	d="
M150.577118,380.998535 
	C150.124573,374.445770 150.124573,367.898712 150.124573,361.351654 
	C150.409653,361.235809 150.694717,361.119965 150.979797,361.004150 
	C155.204880,367.422302 159.429962,373.840454 163.758682,380.573364 
	C159.584763,380.926819 155.307220,380.965546 150.577118,380.998535 
z"/>
<path fill="#F7EFEF" opacity="1.000000" stroke="none" 
	d="
M376.576111,349.441467 
	C376.841492,351.263855 376.787079,353.157257 376.761139,355.458038 
	C373.590546,356.010406 370.391510,356.155426 367.192444,356.300446 
	C367.095917,355.963135 366.999390,355.625824 366.902863,355.288513 
	C370.020660,353.363159 373.138489,351.437805 376.576111,349.441467 
z"/>
<path fill="#B36964" opacity="1.000000" stroke="none" 
	d="
M424.093933,15.796054 
	C424.457428,15.321651 424.792603,15.371504 425.367188,15.511119 
	C426.071533,17.648083 426.936066,19.694202 426.941620,21.742649 
	C427.027283,53.348839 427.016479,84.955345 426.963745,116.561676 
	C426.960541,118.471458 426.417023,120.380341 426.124878,122.289642 
	C425.438446,122.228462 424.752014,122.167290 424.065582,122.106110 
	C424.065582,86.844177 424.065582,51.582245 424.093933,15.796054 
z"/>
<path fill="#B36964" opacity="1.000000" stroke="none" 
	d="
M459.000000,57.000023 
	C459.000000,48.855812 459.000000,41.211590 459.000000,33.567368 
	C462.476837,36.631428 462.876129,127.485291 460.838623,132.276642 
	C460.681671,132.300110 460.521301,132.354904 460.368652,132.338440 
	C460.207581,132.321060 459.986084,132.282608 459.909119,132.171494 
	C459.635162,131.776001 459.200470,131.346451 459.198944,130.928421 
	C459.108948,106.452370 459.056274,81.976181 459.000000,57.000023 
z"/>
<path fill="#B36964" opacity="1.000000" stroke="none" 
	d="
M386.855896,34.311642 
	C387.024384,33.924393 387.416962,33.876015 387.614624,33.869255 
	C388.214630,35.764973 388.962769,37.666584 388.967560,39.570065 
	C389.041718,69.068260 389.032288,98.566704 388.988586,128.065018 
	C388.985870,129.886536 388.537689,131.707413 388.296814,133.528580 
	C387.777130,133.528961 387.257477,133.529327 386.737823,133.529709 
	C386.492645,132.054535 386.035553,130.579666 386.033539,129.104172 
	C385.992523,99.105881 385.993988,69.107498 386.033325,39.109203 
	C386.035278,37.638813 386.459717,36.168980 386.855896,34.311642 
z"/>
<path fill="#F36F61" opacity="1.000000" stroke="none" 
	d="
M75.338531,480.167664 
	C74.733925,477.960815 74.056473,475.687256 74.051392,473.412201 
	C73.981529,442.126801 73.989204,410.841187 74.039757,379.555725 
	C74.042976,377.562317 74.555336,375.569733 74.830833,373.576782 
	C75.404739,373.523010 75.978638,373.469238 76.552536,373.415497 
	C77.032898,374.906982 77.928719,376.397461 77.932495,377.890137 
	C78.014130,410.173920 78.016052,442.458038 77.935768,474.741821 
	C77.931961,476.270264 77.028137,477.796478 76.282814,479.598969 
	C76.022179,479.874207 75.578293,480.100220 75.338531,480.167664 
z"/>
<path fill="#F36F61" opacity="1.000000" stroke="none" 
	d="
M39.243958,462.894348 
	C39.101460,429.929077 39.228779,396.982056 39.416100,364.035339 
	C39.418861,363.549255 40.168209,363.067383 41.351452,361.639435 
	C42.060589,363.944458 42.926342,365.453186 42.930302,366.964142 
	C43.009693,397.261139 43.017250,427.558472 42.915382,457.855347 
	C42.909821,459.509186 41.824223,461.159424 40.894123,463.060120 
	C40.204227,463.176819 39.861572,463.044708 39.243958,462.894348 
z"/>
</svg>